<svg xmlns="http://www.w3.org/2000/svg" width="558" height="447" viewBox="0 0 558 447">
<g>
<path d="M 200.50,410.47 C153.89,404.37 113.39,383.92 80.48,349.87 C69.77,338.77 61.87,328.75 55.00,317.51 C24.01,266.82 16.67,205.68 34.92,150.12 C57.25,82.11 114.93,30.87 185.34,16.49 C204.76,12.53 224.40,11.77 294.26,12.26 C360.14,12.73 364.03,12.96 384.50,17.56 C435.84,29.10 483.06,62.76 510.65,107.48 C514.77,114.16 515.49,116.07 515.43,120.20 C515.35,125.42 513.45,128.83 508.62,132.44 C505.86,134.50 505.68,134.50 347.36,134.76 L 188.86,135.02 L 185.40,142.51 C165.81,184.90 165.59,237.78 184.83,280.50 C186.81,284.90 188.89,288.83 189.46,289.23 C190.03,289.64 261.32,289.98 347.88,289.98 L 505.26,290.00 L 508.76,292.16 C513.36,295.01 516.40,301.68 515.50,306.98 C515.12,309.23 512.06,315.12 508.12,321.17 C474.87,372.16 420.58,404.89 359.14,410.97 C343.40,412.53 213.12,412.12 200.50,410.47 M 232.84,380.72 C231.93,380.05 227.13,376.66 222.17,373.19 C210.43,364.96 193.61,348.97 183.95,336.86 C130.00,269.23 125.75,173.86 173.50,102.00 C188.01,80.16 210.22,57.92 229.26,46.15 C231.32,44.88 233.00,43.50 233.00,43.09 C233.00,42.67 230.86,42.47 228.25,42.63 C225.64,42.79 218.55,43.14 212.50,43.40 C179.83,44.84 143.61,59.30 117.00,81.53 C55.91,132.55 37.84,215.69 72.45,286.50 C95.76,334.20 139.64,368.11 191.44,378.48 C206.60,381.51 207.91,381.65 222.50,381.81 C232.15,381.91 234.18,381.70 232.84,380.72 M 362.56,380.54 C398.56,375.72 432.09,359.28 459.18,333.16 C465.68,326.89 471.00,321.37 471.00,320.88 C471.00,320.38 415.36,320.00 340.50,320.00 C268.73,320.00 210.00,320.36 210.00,320.81 C210.00,322.44 231.75,342.89 239.75,348.79 C263.87,366.57 290.91,377.19 322.50,381.31 C330.07,382.30 352.67,381.86 362.56,380.54 M 471.00,104.01 C471.00,103.47 466.84,98.80 461.75,93.64 C436.36,67.88 402.11,50.20 366.48,44.47 C355.07,42.64 329.20,42.37 318.00,43.98 C307.34,45.52 293.88,48.78 284.00,52.22 C272.23,56.33 252.34,66.76 241.00,74.77 C231.66,81.36 210.00,101.71 210.00,103.89 C210.00,104.70 245.47,105.00 340.50,105.00 C425.89,105.00 471.00,104.66 471.00,104.01 Z" fill="#ffffff"/>
</g>
</svg>